<?xml version="1.0" encoding="UTF-8"?>
<svg id="Capa_1" data-name="Capa 1" xmlns="http://www.w3.org/2000/svg" xmlns:xlink="http://www.w3.org/1999/xlink" viewBox="0 0 207.32 207.32">
  <defs>
    <style>
      .cls-1 {
        fill: #aed136;
        filter: url(#drop-shadow-10);
      }

      .cls-2 {
        fill: #4f646f;
      }

      .cls-3 {
        fill: #f5f6ff;
        filter: url(#drop-shadow-11);
      }

      .cls-4 {
        fill: #73cfed;
      }
    </style>
    <filter id="drop-shadow-10" x="36.04" y="91.32" width="148" height="91" filterUnits="userSpaceOnUse">
      <feOffset dx="4" dy="6"/>
      <feGaussianBlur result="blur" stdDeviation="4"/>
      <feFlood flood-color="#73cfed" flood-opacity=".75"/>
      <feComposite in2="blur" operator="in"/>
      <feComposite in="SourceGraphic"/>
    </filter>
    <filter id="drop-shadow-11" x="68.04" y="34.32" width="83" height="59" filterUnits="userSpaceOnUse">
      <feOffset dx="4" dy="6"/>
      <feGaussianBlur result="blur-2" stdDeviation="4"/>
      <feFlood flood-color="#aed136" flood-opacity=".75"/>
      <feComposite in2="blur-2" operator="in"/>
      <feComposite in="SourceGraphic"/>
    </filter>
  </defs>
  <path class="cls-1" d="M167.09,107.42v46.88c0,5.52-4.48,10-10,10H54.09c-5.52,0-10-4.48-10-10h0v-46.88c.01-3.79,2.54-7.1,6.18-8.13,11.09-3.19,26.49-.94,38.45,2.28l1.09.3c.95.26,1.9.5,2.85.72,8.49,1.92,17.29,1.92,25.78,0,.97-.21,1.93-.45,2.88-.72l1.07-.29c12-3.23,27.37-5.48,38.48-2.29,3.66,1.01,6.2,4.33,6.22,8.13Z"/>
  <path class="cls-2" d="M122.1,105.1c-.18.9-.52,1.75-1,2.52.03.13.05.27.06.4,0,.83-.67,1.5-1.5,1.5h-.07c-.47.48-1.08,1.08-1.56,1.54s-1.01.96-1.58,1.54c-.23.25-.4.54-.52.85.48.27.78.77.79,1.32,0,.83-.67,1.5-1.5,1.5h-.17c-.28,1.14-.53,2.45-.78,3.79.83.09,1.43.83,1.34,1.66-.09.83-.83,1.43-1.66,1.34h-.17l-.15.86c-.16,1-.33,2-.5,3,.64.19,1.08.78,1.07,1.45,0,.83-.69,1.48-1.51,1.47h-.09c-.15.74-.32,1.52-.46,2.13-.14.61-.27,1.23-.41,1.86.83.07,1.44.8,1.37,1.63-.07.82-.79,1.44-1.62,1.37h-.44c-.87,3.28-2.22,6.16-5.4,6.16s-4.53-2.88-5.4-6.16h-.43c-.83.07-1.56-.54-1.63-1.37-.08-.83.54-1.56,1.37-1.63-.13-.63-.26-1.25-.41-1.86-.15-.68-.3-1.39-.45-2.13h-.09c-.68.02-1.28-.42-1.47-1.07-.23-.79.23-1.62,1.02-1.85-.17-1-.33-2-.5-3-.04-.28-.14-.57-.14-.86h-.18c-.83.09-1.58-.51-1.67-1.33-.09-.83.51-1.58,1.34-1.67-.24-1.34-.5-2.65-.77-3.79h-.17c-.55,0-1.06-.3-1.32-.79-.39-.73-.12-1.64.61-2.03-.13-.31-.3-.6-.52-.85-.58-.54-1.02-1-1.58-1.54s-1.1-1.06-1.56-1.54h-.07c-.83,0-1.5-.67-1.5-1.5,0-.13.02-.27.06-.4-.49-.77-.83-1.62-1-2.52-.04-.17-.05-.35-.05-.53-.01-1.65,1.33-3,2.99-3.01h5.03l1.3-12.14c.25-2.5,2.36-4.4,4.87-4.4h4.55c2.51,0,4.61,1.89,4.87,4.39l1.3,12.15h5.03c.88.01,1.72.4,2.29,1.08.6.67.87,1.57.74,2.46Z"/>
  <path class="cls-3" d="M130.67,73.02c-.46,1.15-1.58,1.9-2.82,1.88h-44.4c-1.24.02-2.36-.73-2.82-1.88-3.61-8.6-5.6-18.24-1.39-25.46,4.35-7.46,14.66-7.78,21.48-4.43.22.11.45.21.68.3h0c2.96,1.21,6.3,1.09,9.17-.31,6.82-3.35,17.13-3,21.48,4.43,4.22,7.23,2.23,16.87-1.38,25.47Z"/>
  <path class="cls-4" d="M93.88,35.66c1.34-.18,2.37-1.29,2.45-2.64.44-4.89,1.47-13.73,0-16.1-.22-.49-.63-.87-1.13-1.08-3.73-.9-7.66-.5-11.13,1.15-.58.35-.99.93-1.13,1.59-.83,2.77,2.15,11.06,4.11,15.83.46,1.18,1.65,1.9,2.91,1.76l3.92-.51Z"/>
  <path class="cls-4" d="M76.12,42.34c.63-.67.71-1.69.2-2.45-1.86-2.72-5.07-7.76-6.85-8.34-.36-.12-.74-.12-1.1,0-2.42,1.22-4.38,3.19-5.58,5.63-.19.42-.19.9,0,1.32.73,1.81,5.92,4.75,9.03,6.34.81.45,1.83.28,2.45-.42l1.86-2.08Z"/>
</svg>